<svg width="629" height="647" viewBox="0 0 629 647" fill="none" xmlns="http://www.w3.org/2000/svg">
<path d="M302.534 579.327C299.121 579.999 146.24 580.089 142.827 579.327C139.415 578.565 137.367 561.865 140.097 561.865L305.264 561.865C308.676 561.865 305.946 578.656 302.534 579.327Z" fill="#303030" stroke="white" stroke-width="3"/>
<path d="M227.673 480.865C227.673 480.865 156.832 489.033 156.832 561.865H297.832C297.832 489.033 227.673 480.865 227.673 480.865Z" fill="#1E1E1E" stroke="white"/>
<rect x="492.136" y="89.2683" width="256.046" height="475.719" rx="8.5" transform="rotate(58.1838 492.136 89.2683)" fill="#333737" stroke="white" stroke-width="3"/>
<path d="M330.246 270.81L615.877 295.757C624.019 296.468 626.564 307.138 619.619 311.447L229.518 553.509C222.573 557.818 214.143 550.8 217.12 543.189L321.591 276.181C322.965 272.669 326.489 270.482 330.246 270.81Z" fill="#656A69" stroke="white" stroke-width="3"/>
<path d="M383.753 375.887L98.2899 350.841C90.1499 350.127 87.608 339.459 94.5512 335.151L484.321 93.2949C491.264 88.9866 499.694 96.0007 496.719 103.611L392.413 370.514C391.039 374.029 387.513 376.217 383.753 375.887Z" fill="#404242" stroke="white" stroke-width="3"/>
<circle cx="388.332" cy="370.365" r="46.5" fill="#FAB318"/>
<path d="M218.332 480.865C203.332 484.365 191.832 488.365 183.332 494.365L215.832 547.865L238.832 486.865C235.519 485.489 222.822 481.512 218.332 480.865Z" fill="#FFB318" stroke="#535454" stroke-width="3"/>
<path d="M216.332 546.365L238.832 486.865C253.332 491.865 270.832 504.365 280.332 522.865L226.332 555.865C221.832 555.865 216.764 553.123 216.332 546.365Z" fill="#FFC850" stroke="#535454" stroke-width="3"/>
<path d="M218.175 480.865C218.175 480.865 146.832 489.033 146.832 561.865H288.832C288.832 489.033 218.175 480.865 218.175 480.865Z" fill="#3E3E3E" fill-opacity="0.44" stroke="white" stroke-width="2"/>
</svg>
