<svg width="412" height="110" viewBox="0 0 412 110" fill="none" xmlns="http://www.w3.org/2000/svg">
<circle cx="55" cy="55" r="54.5" fill="#404242" stroke="#404242"/>
<path d="M141.902 76.5V74.5664H144.92C145.701 74.5664 146.238 74.4004 146.531 74.0684C146.844 73.7168 147 73.043 147 72.0469V41.3438C147 40.5039 146.834 39.957 146.502 39.7031C146.17 39.4297 145.477 39.293 144.422 39.293H142.02V37.5059H157.811L174.246 59.9473V42.1934C174.246 41.002 174.061 40.2207 173.689 39.8496C173.338 39.4785 172.566 39.293 171.375 39.293H168.855V37.5059H181.336V39.293H179.051C178.074 39.293 177.4 39.498 177.029 39.9082C176.658 40.2988 176.473 41.0605 176.473 42.1934V77.4082H174.861L149.344 42.3105V72.4277C149.344 73.1113 149.529 73.6387 149.9 74.0098C150.291 74.3809 150.848 74.5664 151.57 74.5664H155.057V76.5H141.902ZM196.67 76.5V74.5664H201.475V57.9551L190.078 39.293H186.24V37.5059H205.869V39.293H201.064L210.615 55.1426L217.324 42.5449C217.637 41.9395 217.852 41.4902 217.969 41.1973C218.105 40.8848 218.174 40.6309 218.174 40.4355C218.174 40.0449 218.008 39.7617 217.676 39.5859C217.344 39.3906 216.846 39.293 216.182 39.293H212.812V37.5059H225.41V39.293H223.799C222.764 39.293 221.914 39.5566 221.25 40.084C220.605 40.6113 219.814 41.7539 218.877 43.5117L211.553 57.1934V74.5664H216.357V76.5H196.67ZM235.09 65.9531V39.293H230.52V37.5059H250.031V39.293H244.934V65.748C244.934 69.0488 245.568 71.4609 246.838 72.9844C248.127 74.4883 250.148 75.2402 252.902 75.2402C254.367 75.2402 255.695 75.0352 256.887 74.625C258.078 74.2148 259.113 73.5996 259.992 72.7793C260.969 71.8809 261.662 70.7969 262.072 69.5273C262.482 68.2578 262.688 66.0215 262.688 62.8184V62.2324V42.3691C262.688 41.041 262.521 40.2012 262.189 39.8496C261.857 39.4785 261.047 39.293 259.758 39.293H257.824V37.5059H270.188V39.293H268.283C266.896 39.293 265.988 39.498 265.559 39.9082C265.129 40.3184 264.914 41.1582 264.914 42.4277V62.8184C264.914 65.748 264.768 67.8574 264.475 69.1465C264.201 70.4355 263.723 71.5488 263.039 72.4863C261.867 74.1465 260.266 75.3867 258.234 76.207C256.203 77.0078 253.645 77.4082 250.559 77.4082C245.5 77.4082 241.652 76.4316 239.016 74.4785C236.398 72.5254 235.09 69.6836 235.09 65.9531ZM276.176 74.5664H280.805V39.293H276.176V37.5059H297.973C302.465 37.5059 305.902 38.2383 308.285 39.7031C310.688 41.168 311.889 43.2773 311.889 46.0312C311.889 48.8242 310.766 51.041 308.52 52.6816C306.273 54.3223 303.08 55.2402 298.939 55.4355V55.9336C303.178 56.5 306.176 57.8281 307.934 59.918C309.691 61.9883 310.57 65.2988 310.57 69.8496C310.57 71.7246 310.756 72.9648 311.127 73.5703C311.498 74.1562 312.152 74.4492 313.09 74.4492C313.461 74.4492 313.861 74.4102 314.291 74.332C314.74 74.2344 315.219 74.0977 315.727 73.9219L316.342 75.5332C315.053 76.1191 313.812 76.5684 312.621 76.8809C311.449 77.1934 310.424 77.3496 309.545 77.3496C307.924 77.3496 306.449 77.1055 305.121 76.6172C303.812 76.1289 302.768 75.4453 301.986 74.5664C300.463 72.8672 299.623 69.7031 299.467 65.0742C299.447 64.4492 299.428 63.9805 299.408 63.668C299.291 60.9727 298.656 59.0977 297.504 58.043C296.352 56.9883 294.408 56.4609 291.674 56.4609H290.648V74.5664H295.746V76.5H276.176V74.5664ZM290.648 54.5273H295.57C297.797 54.5273 299.301 54.0684 300.082 53.1504C300.883 52.2129 301.283 50.2402 301.283 47.2324C301.283 43.4434 300.951 41.1777 300.287 40.4355C299.643 39.6738 298.07 39.293 295.57 39.293H290.648V54.5273ZM330.592 63.5508H341.168L336.012 49.8691L330.592 63.5508ZM320.221 76.5V74.5664H322.623C323.268 74.5664 323.805 74.3516 324.234 73.9219C324.664 73.4922 325.104 72.7109 325.553 71.5781L338.941 36.7148H341.285L355.934 74.5664H359.391V76.5H340.494V74.5664H345.24L341.812 65.4551H329.947L327.369 72.1055C327.311 72.2227 327.262 72.4082 327.223 72.6621C327.203 72.8965 327.193 73.1797 327.193 73.5117C327.193 73.8438 327.34 74.1074 327.633 74.3027C327.945 74.4785 328.375 74.5664 328.922 74.5664H332.408V76.5H320.221ZM368.748 76.5V74.5664H373.553V39.293H371.443C368.885 39.293 366.863 40.084 365.379 41.666C363.914 43.248 362.615 46.0605 361.482 50.1035H359.93L360.398 37.5059H396.756L397.254 50.1035H395.701C394.627 46.1777 393.338 43.3945 391.834 41.7539C390.33 40.1133 388.338 39.293 385.857 39.293H383.631V74.5664H388.436V76.5H368.748ZM397.852 72.3691C397.852 71.041 398.32 69.9082 399.258 68.9707C400.215 68.0332 401.348 67.5645 402.656 67.5645C403.965 67.5645 405.078 68.0332 405.996 68.9707C406.934 69.9082 407.402 71.041 407.402 72.3691C407.402 73.6582 406.934 74.7715 405.996 75.709C405.078 76.627 403.965 77.0859 402.656 77.0859C401.348 77.0859 400.215 76.627 399.258 75.709C398.32 74.7715 397.852 73.6582 397.852 72.3691Z" fill="#404242"/>
</svg>
