<svg width="2117" height="647" viewBox="0 0 2117 647" fill="none" xmlns="http://www.w3.org/2000/svg">
<path d="M302.702 579.462C299.289 580.133 146.408 580.224 142.995 579.462C139.583 578.699 137.535 562 140.265 562L305.432 562C308.844 562 306.114 578.79 302.702 579.462Z" fill="#303030" stroke="#FAB318" stroke-width="3"/>
<path d="M227.841 481C227.841 481 157 489.168 157 562H298C298 489.168 227.841 481 227.841 481Z" fill="#1E1E1E" stroke="#FAB318"/>
<rect x="492.304" y="89.4029" width="256.046" height="475.719" rx="8.5" transform="rotate(58.1838 492.304 89.4029)" fill="#333737" stroke="#FAB318" stroke-width="3"/>
<path d="M330.414 270.945L616.045 295.892C624.187 296.603 626.732 307.273 619.787 311.582L229.686 553.644C222.741 557.953 214.31 550.935 217.288 543.324L321.759 276.316C323.133 272.804 326.657 270.617 330.414 270.945Z" fill="#656A69" stroke="#FAB318" stroke-width="3"/>
<path d="M383.921 376.022L98.4579 350.975C90.3179 350.261 87.776 339.594 94.7192 335.285L484.489 93.4296C491.432 89.1213 499.862 96.1353 496.887 103.746L392.581 370.648C391.207 374.163 387.681 376.352 383.921 376.022Z" fill="#404242" stroke="#FAB318" stroke-width="3"/>
<circle cx="388.5" cy="370.5" r="46.5" fill="#FAB318"/>
<path d="M218.5 481C203.5 484.5 192 488.5 183.5 494.5L216 548L239 487C235.687 485.624 222.99 481.647 218.5 481Z" fill="#FFB318" stroke="#535454" stroke-width="3"/>
<path d="M216.5 546.5L239 487C253.5 492 271 504.5 280.5 523L226.5 556C222 556 216.932 553.258 216.5 546.5Z" fill="#FFC850" stroke="#535454" stroke-width="3"/>
<path d="M218.343 481C218.343 481 147 489.168 147 562H289C289 489.168 218.343 481 218.343 481Z" fill="#3E3E3E" fill-opacity="0.44" stroke="#FAB318" stroke-width="2"/>
<path d="M767.512 430V420.332H782.6C786.506 420.332 789.191 419.502 790.656 417.842C792.219 416.084 793 412.715 793 407.734V254.219C793 250.02 792.17 247.285 790.51 246.016C788.85 244.648 785.383 243.965 780.109 243.965H768.098V235.029H847.053L929.23 347.236V258.467C929.23 252.51 928.303 248.604 926.447 246.748C924.689 244.893 920.832 243.965 914.875 243.965H902.277V235.029H964.68V243.965H953.254C948.371 243.965 945.002 244.99 943.146 247.041C941.291 248.994 940.363 252.803 940.363 258.467V434.541H932.307L804.719 259.053V409.639C804.719 413.057 805.646 415.693 807.502 417.549C809.455 419.404 812.238 420.332 815.852 420.332H833.283V430H767.512ZM1041.35 430V420.332H1065.37V337.275L1008.39 243.965H989.201V235.029H1087.35V243.965H1063.32L1111.08 323.213L1144.62 260.225C1146.18 257.197 1147.26 254.951 1147.84 253.486C1148.53 251.924 1148.87 250.654 1148.87 249.678C1148.87 247.725 1148.04 246.309 1146.38 245.43C1144.72 244.453 1142.23 243.965 1138.91 243.965H1122.06V235.029H1185.05V243.965H1176.99C1171.82 243.965 1167.57 245.283 1164.25 247.92C1161.03 250.557 1157.07 256.27 1152.38 265.059L1115.76 333.467V420.332H1139.79V430H1041.35ZM1233.45 377.266V243.965H1210.6V235.029H1308.16V243.965H1282.67V376.24C1282.67 392.744 1285.84 404.805 1292.19 412.422C1298.63 419.941 1308.74 423.701 1322.51 423.701C1329.84 423.701 1336.48 422.676 1342.43 420.625C1348.39 418.574 1353.57 415.498 1357.96 411.396C1362.84 406.904 1366.31 401.484 1368.36 395.137C1370.41 388.789 1371.44 377.607 1371.44 361.592V358.662V259.346C1371.44 252.705 1370.61 248.506 1368.95 246.748C1367.29 244.893 1363.23 243.965 1356.79 243.965H1347.12V235.029H1408.94V243.965H1399.42C1392.48 243.965 1387.94 244.99 1385.79 247.041C1383.64 249.092 1382.57 253.291 1382.57 259.639V361.592C1382.57 376.24 1381.84 386.787 1380.37 393.232C1379.01 399.678 1376.61 405.244 1373.2 409.932C1367.34 418.232 1359.33 424.434 1349.17 428.535C1339.02 432.539 1326.22 434.541 1310.79 434.541C1285.5 434.541 1266.26 429.658 1253.08 419.893C1239.99 410.127 1233.45 395.918 1233.45 377.266ZM1438.88 420.332H1462.02V243.965H1438.88V235.029H1547.86C1570.32 235.029 1587.51 238.691 1599.43 246.016C1611.44 253.34 1617.44 263.887 1617.44 277.656C1617.44 291.621 1611.83 302.705 1600.6 310.908C1589.37 319.111 1573.4 323.701 1552.7 324.678V327.168C1573.89 330 1588.88 336.641 1597.67 347.09C1606.46 357.441 1610.85 373.994 1610.85 396.748C1610.85 406.123 1611.78 412.324 1613.63 415.352C1615.49 418.281 1618.76 419.746 1623.45 419.746C1625.3 419.746 1627.31 419.551 1629.46 419.16C1631.7 418.672 1634.09 417.988 1636.63 417.109L1639.71 425.166C1633.26 428.096 1627.06 430.342 1621.11 431.904C1615.25 433.467 1610.12 434.248 1605.72 434.248C1597.62 434.248 1590.25 433.027 1583.61 430.586C1577.06 428.145 1571.84 424.727 1567.93 420.332C1560.31 411.836 1556.12 396.016 1555.33 372.871C1555.24 369.746 1555.14 367.402 1555.04 365.84C1554.46 352.363 1551.28 342.988 1545.52 337.715C1539.76 332.441 1530.04 329.805 1516.37 329.805H1511.24V420.332H1536.73V430H1438.88V420.332ZM1511.24 320.137H1535.85C1546.98 320.137 1554.5 317.842 1558.41 313.252C1562.41 308.564 1564.42 298.701 1564.42 283.662C1564.42 264.717 1562.76 253.389 1559.44 249.678C1556.21 245.869 1548.35 243.965 1535.85 243.965H1511.24V320.137ZM1710.96 365.254H1763.84L1738.06 296.846L1710.96 365.254ZM1659.1 430V420.332H1671.12C1674.34 420.332 1677.02 419.258 1679.17 417.109C1681.32 414.961 1683.52 411.055 1685.76 405.391L1752.71 231.074H1764.43L1837.67 420.332H1854.95V430H1760.47V420.332H1784.2L1767.06 374.775H1707.74L1694.85 408.027C1694.55 408.613 1694.31 409.541 1694.11 410.811C1694.02 411.982 1693.97 413.398 1693.97 415.059C1693.97 416.719 1694.7 418.037 1696.16 419.014C1697.73 419.893 1699.88 420.332 1702.61 420.332H1720.04V430H1659.1ZM1901.74 430V420.332H1925.76V243.965H1915.22C1902.42 243.965 1892.32 247.92 1884.89 255.83C1877.57 263.74 1871.08 277.803 1865.41 298.018H1857.65L1859.99 235.029H2041.78L2044.27 298.018H2036.51C2031.13 278.389 2024.69 264.473 2017.17 256.27C2009.65 248.066 1999.69 243.965 1987.29 243.965H1976.15V420.332H2000.18V430H1901.74ZM2047.26 409.346C2047.26 402.705 2049.6 397.041 2054.29 392.354C2059.07 387.666 2064.74 385.322 2071.28 385.322C2077.82 385.322 2083.39 387.666 2087.98 392.354C2092.67 397.041 2095.01 402.705 2095.01 409.346C2095.01 415.791 2092.67 421.357 2087.98 426.045C2083.39 430.635 2077.82 432.93 2071.28 432.93C2064.74 432.93 2059.07 430.635 2054.29 426.045C2049.6 421.357 2047.26 415.791 2047.26 409.346Z" fill="#404242"/>
</svg>
