<svg width="267" height="42" viewBox="0 0 267 42" fill="none" xmlns="http://www.w3.org/2000/svg">
<path d="M0.902344 40.5V38.5664H3.91992C4.70117 38.5664 5.23828 38.4004 5.53125 38.0684C5.84375 37.7168 6 37.043 6 36.0469V5.34375C6 4.50391 5.83398 3.95703 5.50195 3.70312C5.16992 3.42969 4.47656 3.29297 3.42188 3.29297H1.01953V1.50586H16.8105L33.2461 23.9473V6.19336C33.2461 5.00195 33.0605 4.2207 32.6895 3.84961C32.3379 3.47852 31.5664 3.29297 30.375 3.29297H27.8555V1.50586H40.3359V3.29297H38.0508C37.0742 3.29297 36.4004 3.49805 36.0293 3.9082C35.6582 4.29883 35.4727 5.06055 35.4727 6.19336V41.4082H33.8613L8.34375 6.31055V36.4277C8.34375 37.1113 8.5293 37.6387 8.90039 38.0098C9.29102 38.3809 9.84766 38.5664 10.5703 38.5664H14.0566V40.5H0.902344ZM55.6699 40.5V38.5664H60.4746V21.9551L49.0781 3.29297H45.2402V1.50586H64.8691V3.29297H60.0645L69.6152 19.1426L76.3242 6.54492C76.6367 5.93945 76.8516 5.49023 76.9688 5.19727C77.1055 4.88477 77.1738 4.63086 77.1738 4.43555C77.1738 4.04492 77.0078 3.76172 76.6758 3.58594C76.3438 3.39062 75.8457 3.29297 75.1816 3.29297H71.8125V1.50586H84.4102V3.29297H82.7988C81.7637 3.29297 80.9141 3.55664 80.25 4.08398C79.6055 4.61133 78.8145 5.75391 77.877 7.51172L70.5527 21.1934V38.5664H75.3574V40.5H55.6699ZM94.0898 29.9531V3.29297H89.5195V1.50586H109.031V3.29297H103.934V29.748C103.934 33.0488 104.568 35.4609 105.838 36.9844C107.127 38.4883 109.148 39.2402 111.902 39.2402C113.367 39.2402 114.695 39.0352 115.887 38.625C117.078 38.2148 118.113 37.5996 118.992 36.7793C119.969 35.8809 120.662 34.7969 121.072 33.5273C121.482 32.2578 121.688 30.0215 121.688 26.8184V26.2324V6.36914C121.688 5.04102 121.521 4.20117 121.189 3.84961C120.857 3.47852 120.047 3.29297 118.758 3.29297H116.824V1.50586H129.188V3.29297H127.283C125.896 3.29297 124.988 3.49805 124.559 3.9082C124.129 4.31836 123.914 5.1582 123.914 6.42773V26.8184C123.914 29.748 123.768 31.8574 123.475 33.1465C123.201 34.4355 122.723 35.5488 122.039 36.4863C120.867 38.1465 119.266 39.3867 117.234 40.207C115.203 41.0078 112.645 41.4082 109.559 41.4082C104.5 41.4082 100.652 40.4316 98.0156 38.4785C95.3984 36.5254 94.0898 33.6836 94.0898 29.9531ZM135.176 38.5664H139.805V3.29297H135.176V1.50586H156.973C161.465 1.50586 164.902 2.23828 167.285 3.70312C169.688 5.16797 170.889 7.27734 170.889 10.0312C170.889 12.8242 169.766 15.041 167.52 16.6816C165.273 18.3223 162.08 19.2402 157.939 19.4355V19.9336C162.178 20.5 165.176 21.8281 166.934 23.918C168.691 25.9883 169.57 29.2988 169.57 33.8496C169.57 35.7246 169.756 36.9648 170.127 37.5703C170.498 38.1562 171.152 38.4492 172.09 38.4492C172.461 38.4492 172.861 38.4102 173.291 38.332C173.74 38.2344 174.219 38.0977 174.727 37.9219L175.342 39.5332C174.053 40.1191 172.812 40.5684 171.621 40.8809C170.449 41.1934 169.424 41.3496 168.545 41.3496C166.924 41.3496 165.449 41.1055 164.121 40.6172C162.812 40.1289 161.768 39.4453 160.986 38.5664C159.463 36.8672 158.623 33.7031 158.467 29.0742C158.447 28.4492 158.428 27.9805 158.408 27.668C158.291 24.9727 157.656 23.0977 156.504 22.043C155.352 20.9883 153.408 20.4609 150.674 20.4609H149.648V38.5664H154.746V40.5H135.176V38.5664ZM149.648 18.5273H154.57C156.797 18.5273 158.301 18.0684 159.082 17.1504C159.883 16.2129 160.283 14.2402 160.283 11.2324C160.283 7.44336 159.951 5.17773 159.287 4.43555C158.643 3.67383 157.07 3.29297 154.57 3.29297H149.648V18.5273ZM189.592 27.5508H200.168L195.012 13.8691L189.592 27.5508ZM179.221 40.5V38.5664H181.623C182.268 38.5664 182.805 38.3516 183.234 37.9219C183.664 37.4922 184.104 36.7109 184.553 35.5781L197.941 0.714844H200.285L214.934 38.5664H218.391V40.5H199.494V38.5664H204.24L200.812 29.4551H188.947L186.369 36.1055C186.311 36.2227 186.262 36.4082 186.223 36.6621C186.203 36.8965 186.193 37.1797 186.193 37.5117C186.193 37.8438 186.34 38.1074 186.633 38.3027C186.945 38.4785 187.375 38.5664 187.922 38.5664H191.408V40.5H179.221ZM227.748 40.5V38.5664H232.553V3.29297H230.443C227.885 3.29297 225.863 4.08398 224.379 5.66602C222.914 7.24805 221.615 10.0605 220.482 14.1035H218.93L219.398 1.50586H255.756L256.254 14.1035H254.701C253.627 10.1777 252.338 7.39453 250.834 5.75391C249.33 4.11328 247.338 3.29297 244.857 3.29297H242.631V38.5664H247.436V40.5H227.748ZM256.852 36.3691C256.852 35.041 257.32 33.9082 258.258 32.9707C259.215 32.0332 260.348 31.5645 261.656 31.5645C262.965 31.5645 264.078 32.0332 264.996 32.9707C265.934 33.9082 266.402 35.041 266.402 36.3691C266.402 37.6582 265.934 38.7715 264.996 39.709C264.078 40.627 262.965 41.0859 261.656 41.0859C260.348 41.0859 259.215 40.627 258.258 39.709C257.32 38.7715 256.852 37.6582 256.852 36.3691Z" fill="#404242"/>
</svg>
