<svg width="1440" height="6" viewBox="0 0 1440 6" fill="none" xmlns="http://www.w3.org/2000/svg">
<path d="M2 0.499969H-0.5V5.49997H2V0.499969ZM1114 5.49996C1115.38 5.49996 1116.5 4.38067 1116.5 2.99996C1116.5 1.61925 1115.38 0.499958 1114 0.499958L1114 5.49996ZM1136 0.499961C1134.62 0.499962 1133.5 1.61925 1133.5 2.99996C1133.5 4.38067 1134.62 5.49996 1136 5.49996L1136 0.499961ZM1194 5.49994C1195.38 5.49994 1196.5 4.38065 1196.5 2.99994C1196.5 1.61923 1195.38 0.499938 1194 0.499939L1194 5.49994ZM1216 0.499939C1214.62 0.499939 1213.5 1.61923 1213.5 2.99994C1213.5 4.38065 1214.62 5.49994 1216 5.49994L1216 0.499939ZM1242 5.49995C1243.38 5.49995 1244.5 4.38066 1244.5 2.99995C1244.5 1.61924 1243.38 0.499947 1242 0.499947L1242 5.49995ZM1264 0.499939C1262.62 0.499939 1261.5 1.61923 1261.5 2.99994C1261.5 4.38065 1262.62 5.49994 1264 5.49994V0.499939ZM1274 5.49994C1275.38 5.49994 1276.5 4.38065 1276.5 2.99994C1276.5 1.61923 1275.38 0.499939 1274 0.499939V5.49994ZM1294 0.499958C1292.62 0.499958 1291.5 1.61925 1291.5 2.99996C1291.5 4.38067 1292.62 5.49996 1294 5.49996L1294 0.499958ZM1440 5.49994L1442.5 5.49994L1442.5 0.499939L1440 0.499939L1440 5.49994ZM2 5.49997C410 5.49997 688 5.49997 864 5.49996C952 5.49996 1014.5 5.49996 1055 5.49996C1075.25 5.49996 1090 5.49996 1099.69 5.49996C1104.53 5.49996 1108.11 5.49996 1110.48 5.49996C1111.66 5.49996 1112.54 5.49996 1113.13 5.49996C1113.42 5.49996 1113.64 5.49996 1113.78 5.49996C1113.86 5.49996 1113.91 5.49996 1113.95 5.49996C1113.96 5.49996 1113.98 5.49996 1113.99 5.49996C1113.99 5.49996 1113.99 5.49996 1114 5.49996C1114 5.49996 1114 5.49996 1114 2.99996C1114 0.499958 1114 0.499958 1114 0.499958C1113.99 0.499958 1113.99 0.499958 1113.99 0.499958C1113.98 0.499958 1113.96 0.499958 1113.95 0.499958C1113.91 0.499958 1113.86 0.499958 1113.78 0.499958C1113.64 0.499958 1113.42 0.499958 1113.13 0.499958C1112.54 0.499958 1111.66 0.499958 1110.48 0.499958C1108.11 0.499958 1104.53 0.499958 1099.69 0.499958C1090 0.499958 1075.25 0.499959 1055 0.499959C1014.5 0.49996 952 0.499962 864 0.499963C688 0.499966 410 0.499969 2 0.499969V5.49997ZM1136 5.49996L1194 5.49994L1194 0.499939L1136 0.499961L1136 5.49996ZM1216 5.49994L1242 5.49995L1242 0.499947L1216 0.499939L1216 5.49994ZM1264 5.49994H1274V0.499939H1264V5.49994ZM1294 5.49996L1440 5.49994L1440 0.499939L1294 0.499958L1294 5.49996Z" fill="#404242"/>
</svg>
