<svg width="1440" height="6" viewBox="0 0 1440 6" fill="none" xmlns="http://www.w3.org/2000/svg">
<path d="M1440 0.50003H1442.5V5.50003H1440V0.50003ZM328 5.50002C326.619 5.50002 325.5 4.38073 325.5 3.00002C325.5 1.61931 326.619 0.500019 328 0.500019L328 5.50002ZM306 0.500022C307.381 0.500023 308.5 1.61931 308.5 3.00002C308.5 4.38073 307.381 5.50002 306 5.50002L306 0.500022ZM248 5.5C246.619 5.5 245.5 4.38071 245.5 3C245.5 1.61929 246.619 0.499999 248 0.5L248 5.5ZM226 0.5C227.381 0.5 228.5 1.61929 228.5 3C228.5 4.38071 227.381 5.5 226 5.5L226 0.5ZM200 5.50001C198.619 5.50001 197.5 4.38072 197.5 3.00001C197.5 1.6193 198.619 0.500008 200 0.500008L200 5.50001ZM178 0.5C179.381 0.5 180.5 1.61929 180.5 3C180.5 4.38071 179.381 5.5 178 5.5V0.5ZM168 5.5C166.619 5.5 165.5 4.38071 165.5 3C165.5 1.61929 166.619 0.5 168 0.5V5.5ZM148 0.500019C149.381 0.500019 150.5 1.61931 150.5 3.00002C150.5 4.38073 149.381 5.50002 148 5.50002L148 0.500019ZM2 5.5L-0.5 5.5L-0.5 0.5L2 0.5L2 5.5ZM1440 5.50003C1032 5.50003 754 5.50003 578 5.50002C490 5.50002 427.5 5.50002 387 5.50002C366.75 5.50002 352 5.50002 342.312 5.50002C337.469 5.50002 333.891 5.50002 331.523 5.50002C330.34 5.50002 329.459 5.50002 328.874 5.50002C328.582 5.50002 328.363 5.50002 328.218 5.50002C328.145 5.50002 328.091 5.50002 328.054 5.50002C328.036 5.50002 328.023 5.50002 328.014 5.50002C328.009 5.50002 328.006 5.50002 328.003 5.50002C328.001 5.50002 328 5.50002 328 3.00002C328 0.500019 328.001 0.500019 328.003 0.500019C328.006 0.500019 328.009 0.500019 328.014 0.500019C328.023 0.500019 328.036 0.500019 328.054 0.500019C328.091 0.500019 328.145 0.500019 328.218 0.500019C328.363 0.500019 328.582 0.500019 328.874 0.500019C329.459 0.500019 330.34 0.500019 331.523 0.500019C333.891 0.500019 337.469 0.500019 342.313 0.500019C352 0.500019 366.75 0.50002 387 0.50002C427.5 0.500021 490 0.500023 578 0.500024C754 0.500027 1032 0.50003 1440 0.50003V5.50003ZM306 5.50002L248 5.5L248 0.5L306 0.500022L306 5.50002ZM226 5.5L200 5.50001L200 0.500008L226 0.5L226 5.5ZM178 5.5H168V0.5H178V5.5ZM148 5.50002L2 5.5L2 0.5L148 0.500019L148 5.50002Z" fill="#404242"/>
</svg>
